<svg width="76" height="131" viewBox="0 0 76 131" fill="none" xmlns="http://www.w3.org/2000/svg">
<path d="M69.3496 31.2365C70.0538 30.5324 71.0088 30.1368 72.0046 30.1368C73.0005 30.1368 73.9555 30.5324 74.6596 31.2365C75.3638 31.9407 75.7594 32.8957 75.7594 33.8915C75.7594 34.8873 75.3638 35.8424 74.6596 36.5465L40.9097 70.2966C40.5613 70.6458 40.1475 70.9229 39.6919 71.1119C39.2363 71.301 38.7479 71.3983 38.2547 71.3983C37.7614 71.3983 37.273 71.301 36.8174 71.1119C36.3619 70.9229 35.948 70.6458 35.5997 70.2966L1.84973 36.5465C1.14559 35.8424 0.75 34.8873 0.75 33.8915C0.75 32.8957 1.14559 31.9407 1.84973 31.2365C2.55388 30.5324 3.50892 30.1368 4.50473 30.1368C5.50055 30.1368 6.45558 30.5324 7.15973 31.2365L38.2547 62.3391L69.3496 31.2365ZM69.3496 1.23646C70.0538 0.532306 71.0088 0.136719 72.0046 0.136719C73.0005 0.136719 73.9555 0.532306 74.6596 1.23646C75.3638 1.94061 75.7594 2.89564 75.7594 3.89146C75.7594 4.88728 75.3638 5.84232 74.6596 6.54647L40.9097 40.2965C40.5613 40.6458 40.1475 40.9228 39.6919 41.1119C39.2363 41.3009 38.7479 41.3982 38.2547 41.3982C37.7614 41.3982 37.273 41.3009 36.8174 41.1119C36.3619 40.9228 35.948 40.6458 35.5997 40.2965L1.84973 6.54647C1.50108 6.19781 1.22451 5.78389 1.03581 5.32834C0.847119 4.8728 0.75 4.38454 0.75 3.89146C0.75 3.39838 0.847119 2.91013 1.03581 2.45459C1.22451 1.99904 1.50108 1.58512 1.84973 1.23646C2.19839 0.887797 2.61231 0.611226 3.06786 0.422532C3.5234 0.233838 4.01165 0.136719 4.50473 0.136719C4.99781 0.136719 5.48606 0.233838 5.94161 0.422532C6.39715 0.611226 6.81107 0.887797 7.15973 1.23646L38.2547 32.339L69.3496 1.23646Z" fill="url(#paint0_linear_43_13)"/>
<path d="M69.3497 90.342C70.0538 89.6378 71.0088 89.2422 72.0046 89.2422C73.0005 89.2422 73.9555 89.6378 74.6596 90.342C75.3638 91.0461 75.7594 92.0012 75.7594 92.997C75.7594 93.9928 75.3638 94.9478 74.6596 95.652L40.9097 129.402C40.5613 129.751 40.1475 130.028 39.6919 130.217C39.2363 130.406 38.7479 130.504 38.2547 130.504C37.7614 130.504 37.273 130.406 36.8174 130.217C36.3619 130.028 35.948 129.751 35.5997 129.402L1.84973 95.652C1.14559 94.9478 0.75 93.9928 0.75 92.997C0.75 92.0012 1.14559 91.0461 1.84973 90.342C2.55388 89.6378 3.50892 89.2422 4.50473 89.2422C5.50055 89.2422 6.45558 89.6378 7.15973 90.342L38.2547 121.445L69.3497 90.342ZM69.3497 60.3419C70.0538 59.6378 71.0088 59.2422 72.0046 59.2422C73.0005 59.2422 73.9555 59.6378 74.6596 60.3419C75.3638 61.0461 75.7594 62.0011 75.7594 62.9969C75.7594 63.9928 75.3638 64.9478 74.6596 65.6519L40.9097 99.402C40.5613 99.7512 40.1475 100.028 39.6919 100.217C39.2363 100.406 38.7479 100.504 38.2547 100.504C37.7614 100.504 37.273 100.406 36.8174 100.217C36.3619 100.028 35.948 99.7512 35.5997 99.402L1.84973 65.6519C1.50108 65.3033 1.22451 64.8894 1.03581 64.4338C0.847119 63.9783 0.75 63.49 0.75 62.9969C0.75 62.5039 0.847119 62.0156 1.03581 61.5601C1.22451 61.1045 1.50108 60.6906 1.84973 60.3419C2.19839 59.9933 2.61231 59.7167 3.06786 59.528C3.5234 59.3393 4.01165 59.2422 4.50473 59.2422C4.99781 59.2422 5.48606 59.3393 5.94161 59.528C6.39715 59.7167 6.81107 59.9933 7.15973 60.3419L38.2547 91.4445L69.3497 60.3419Z" fill="url(#paint1_linear_43_13)"/>
<defs>
<linearGradient id="paint0_linear_43_13" x1="38.2547" y1="0.136719" x2="38.2547" y2="71.3983" gradientUnits="userSpaceOnUse">
<stop stop-color="#7000FF"/>
<stop offset="1" stop-color="white"/>
</linearGradient>
<linearGradient id="paint1_linear_43_13" x1="38.2547" y1="59.2422" x2="38.2547" y2="130.504" gradientUnits="userSpaceOnUse">
<stop stop-color="#7000FF"/>
<stop offset="1" stop-color="white"/>
</linearGradient>
</defs>
</svg>
